<svg width="17" height="16" viewBox="0 0 17 16" fill="none" xmlns="http://www.w3.org/2000/svg">
<path d="M15.3265 10.9424C15.215 11.7893 14.7991 12.5666 14.1564 13.1293C13.5137 13.6919 12.6882 14.0014 11.834 13.9999C6.87149 13.9999 2.83399 9.96237 2.83399 4.99987C2.83246 4.14568 3.14192 3.32014 3.70457 2.67743C4.26723 2.03473 5.0446 1.61882 5.89149 1.50737C6.10565 1.48122 6.32252 1.52504 6.50973 1.63227C6.69694 1.73951 6.84445 1.90441 6.93024 2.10237L8.25024 5.04925V5.05675C8.31592 5.20828 8.34304 5.37372 8.32919 5.5383C8.31534 5.70287 8.26095 5.86145 8.17087 5.99987C8.15962 6.01675 8.14774 6.03237 8.13524 6.048L6.83399 7.5905C7.30211 8.54175 8.29712 9.528 9.26087 9.99737L10.7821 8.703C10.7971 8.69044 10.8127 8.67875 10.829 8.668C10.9673 8.57575 11.1264 8.51944 11.292 8.50416C11.4575 8.48888 11.6243 8.51512 11.7771 8.5805L11.7852 8.58425L14.7296 9.90362C14.9279 9.98911 15.0932 10.1365 15.2008 10.3237C15.3084 10.511 15.3525 10.728 15.3265 10.9424Z" fill="#B3B3B3"/>
</svg>
