<svg width="13" height="11" viewBox="0 0 13 11" fill="none" xmlns="http://www.w3.org/2000/svg">
<path d="M6 5C6 5.19891 5.92098 5.38968 5.78033 5.53033C5.63968 5.67098 5.44891 5.75 5.25 5.75H1C0.801088 5.75 0.610322 5.67098 0.46967 5.53033C0.329018 5.38968 0.25 5.19891 0.25 5C0.25 4.80109 0.329018 4.61032 0.46967 4.46967C0.610322 4.32902 0.801088 4.25 1 4.25H5.25C5.44891 4.25 5.63968 4.32902 5.78033 4.46967C5.92098 4.61032 6 4.80109 6 5ZM1 1.75H9.25C9.44891 1.75 9.63968 1.67098 9.78033 1.53033C9.92098 1.38968 10 1.19891 10 1C10 0.801088 9.92098 0.610322 9.78033 0.46967C9.63968 0.329018 9.44891 0.25 9.25 0.25H1C0.801088 0.25 0.610322 0.329018 0.46967 0.46967C0.329018 0.610322 0.25 0.801088 0.25 1C0.25 1.19891 0.329018 1.38968 0.46967 1.53033C0.610322 1.67098 0.801088 1.75 1 1.75ZM4.25 8.25H1C0.801088 8.25 0.610322 8.32902 0.46967 8.46967C0.329018 8.61032 0.25 8.80109 0.25 9C0.25 9.19891 0.329018 9.38968 0.46967 9.53033C0.610322 9.67098 0.801088 9.75 1 9.75H4.25C4.44891 9.75 4.63968 9.67098 4.78033 9.53033C4.92098 9.38968 5 9.19891 5 9C5 8.80109 4.92098 8.61032 4.78033 8.46967C4.63968 8.32902 4.44891 8.25 4.25 8.25ZM12.5306 6.96937C12.4609 6.89945 12.3782 6.84398 12.287 6.80612C12.1958 6.76827 12.0981 6.74878 11.9994 6.74878C11.9007 6.74878 11.8029 6.76827 11.7118 6.80612C11.6206 6.84398 11.5378 6.89945 11.4681 6.96937L10.25 8.1875V4C10.25 3.80109 10.171 3.61032 10.0303 3.46967C9.88968 3.32902 9.69891 3.25 9.5 3.25C9.30109 3.25 9.11032 3.32902 8.96967 3.46967C8.82902 3.61032 8.75 3.80109 8.75 4V8.1875L7.53063 6.9675C7.38973 6.8266 7.19863 6.74745 6.99938 6.74745C6.80012 6.74745 6.60902 6.8266 6.46813 6.9675C6.32723 7.1084 6.24807 7.29949 6.24807 7.49875C6.24807 7.69801 6.32723 7.8891 6.46813 8.03L8.96813 10.53C9.0378 10.5999 9.1206 10.6554 9.21176 10.6933C9.30293 10.7311 9.40067 10.7506 9.49938 10.7506C9.59809 10.7506 9.69583 10.7311 9.78699 10.6933C9.87815 10.6554 9.96095 10.5999 10.0306 10.53L12.5306 8.03C12.6713 7.88935 12.7503 7.69859 12.7503 7.49969C12.7503 7.30078 12.6713 7.11003 12.5306 6.96937Z" fill="#666666"/>
</svg>
