<svg width="16" height="17" viewBox="0 0 16 17" fill="none" xmlns="http://www.w3.org/2000/svg">
<path d="M14.5306 5.53081L6.5306 13.5308C6.46092 13.6007 6.37813 13.6562 6.28696 13.6941C6.1958 13.7319 6.09806 13.7514 5.99935 13.7514C5.90064 13.7514 5.8029 13.7319 5.71173 13.6941C5.62057 13.6562 5.53778 13.6007 5.4681 13.5308L1.9681 10.0308C1.89833 9.96105 1.84299 9.87823 1.80524 9.78707C1.76748 9.69592 1.74805 9.59823 1.74805 9.49956C1.74805 9.4009 1.76748 9.3032 1.80524 9.21205C1.84299 9.1209 1.89833 9.03808 1.9681 8.96831C2.03786 8.89855 2.12069 8.84321 2.21184 8.80545C2.30299 8.76769 2.40069 8.74826 2.49935 8.74826C2.59801 8.74826 2.69571 8.76769 2.78686 8.80545C2.87801 8.84321 2.96083 8.89855 3.0306 8.96831L5.99997 11.9377L13.4693 4.46956C13.6102 4.32867 13.8013 4.24951 14.0006 4.24951C14.1999 4.24951 14.391 4.32867 14.5318 4.46956C14.6727 4.61046 14.7519 4.80156 14.7519 5.00081C14.7519 5.20007 14.6727 5.39117 14.5318 5.53206L14.5306 5.53081Z" fill="#1A1A1A"/>
</svg>
