<svg width="16" height="14" viewBox="0 0 16 14" fill="none" xmlns="http://www.w3.org/2000/svg">
<path d="M9.53674e-07 6.99917C9.53674e-07 7.26432 0.101139 7.51861 0.281166 7.7061C0.461192 7.89359 0.705359 7.99892 0.959955 7.99892H12.7194L8.59799 12.2904C8.41765 12.4782 8.31634 12.7329 8.31634 12.9985C8.31634 13.2641 8.41765 13.5189 8.59799 13.7067C8.77833 13.8945 9.02292 14 9.27796 14C9.533 14 9.77759 13.8945 9.95793 13.7067L15.7177 7.70816C15.8071 7.61528 15.8782 7.50491 15.9266 7.38339C15.9751 7.26187 16 7.13158 16 7C16 6.86842 15.9751 6.73813 15.9266 6.61661C15.8782 6.49509 15.8071 6.38472 15.7177 6.29184L9.95793 0.293328C9.86863 0.200332 9.76263 0.126563 9.64596 0.0762334C9.52929 0.025904 9.40424 0 9.27796 0C9.15168 0 9.02663 0.025904 8.90997 0.0762334C8.7933 0.126563 8.68729 0.200332 8.59799 0.293328C8.5087 0.386325 8.43787 0.496728 8.38954 0.618234C8.34121 0.73974 8.31634 0.869969 8.31634 1.00149C8.31634 1.133 8.34121 1.26323 8.38954 1.38474C8.43787 1.50624 8.5087 1.61665 8.59799 1.70964L12.7194 5.99941H0.959955C0.705359 5.99941 0.461192 6.10474 0.281166 6.29223C0.101139 6.47972 9.53674e-07 6.73402 9.53674e-07 6.99917Z" fill="white"/>
</svg>
