<svg width="20" height="20" viewBox="0 0 20 20" fill="none" xmlns="http://www.w3.org/2000/svg">
<path d="M17.5459 10.9541C17.7573 11.1654 17.876 11.4521 17.876 11.7509C17.876 12.0498 17.7573 12.3365 17.5459 12.5478C17.3346 12.7592 17.0479 12.8779 16.7491 12.8779C16.4502 12.8779 16.1635 12.7592 15.9522 12.5478L11.125 7.71875V18.5C11.125 18.7984 11.0065 19.0845 10.7955 19.2955C10.5845 19.5065 10.2984 19.625 10 19.625C9.70163 19.625 9.41548 19.5065 9.2045 19.2955C8.99353 19.0845 8.875 18.7984 8.875 18.5V7.71875L4.04594 12.5459C3.83459 12.7573 3.54795 12.876 3.24906 12.876C2.95018 12.876 2.66353 12.7573 2.45219 12.5459C2.24084 12.3346 2.12211 12.0479 2.12211 11.7491C2.12211 11.4502 2.24084 11.1635 2.45219 10.9522L9.20219 4.20219C9.3067 4.09731 9.4309 4.01409 9.56764 3.95731C9.70439 3.90053 9.851 3.8713 9.99906 3.8713C10.1471 3.8713 10.2937 3.90053 10.4305 3.95731C10.5672 4.01409 10.6914 4.09731 10.7959 4.20219L17.5459 10.9541ZM18.25 0.125H1.75C1.45163 0.125 1.16548 0.243526 0.954505 0.454505C0.743526 0.665483 0.625 0.951631 0.625 1.25C0.625 1.54837 0.743526 1.83452 0.954505 2.0455C1.16548 2.25647 1.45163 2.375 1.75 2.375H18.25C18.5484 2.375 18.8345 2.25647 19.0455 2.0455C19.2565 1.83452 19.375 1.54837 19.375 1.25C19.375 0.951631 19.2565 0.665483 19.0455 0.454505C18.8345 0.243526 18.5484 0.125 18.25 0.125Z" fill="#B3B3B3"/>
</svg>
