<svg width="16" height="23" viewBox="0 0 16 23" fill="none" xmlns="http://www.w3.org/2000/svg">
<path d="M15.3337 7.66658C15.3337 3.61325 12.0537 0.333252 8.00033 0.333252C3.94699 0.333252 0.666992 3.61325 0.666992 7.66658C0.666992 11.2666 3.25366 14.2399 6.66699 14.8666V17.6666H4.00033V20.3333H6.66699V22.9999H9.33366V20.3333H12.0003V17.6666H9.33366V14.8666C12.747 14.2399 15.3337 11.2666 15.3337 7.66658ZM3.33366 7.66658C3.33366 5.09325 5.42699 2.99992 8.00033 2.99992C10.5737 2.99992 12.667 5.09325 12.667 7.66658C12.667 10.2399 10.5737 12.3333 8.00033 12.3333C5.42699 12.3333 3.33366 10.2399 3.33366 7.66658Z" fill="#EB3223"/>
</svg>
