<svg width="22" height="22" viewBox="0 0 22 22" fill="none" xmlns="http://www.w3.org/2000/svg">
<path d="M7.66634 9.66659C10.2397 9.66659 12.333 11.7599 12.333 14.3333C12.333 16.9066 10.2397 18.9999 7.66634 18.9999C5.09301 18.9999 2.99967 16.9066 2.99967 14.3333C2.99967 11.7599 5.09301 9.66659 7.66634 9.66659ZM7.66634 6.99992C3.61301 6.99992 0.333008 10.2799 0.333008 14.3333C0.333008 18.3866 3.61301 21.6666 7.66634 21.6666C11.7197 21.6666 14.9997 18.3866 14.9997 14.3333C14.9997 12.7866 14.5197 11.3599 13.7063 10.1733L18.9997 4.89325V8.33325H21.6663V0.333252H13.6663V2.99992H17.1063L11.813 8.29325C10.6397 7.47992 9.21301 6.99992 7.66634 6.99992Z" fill="#0021F5"/>
</svg>
