<svg width="40" height="41" viewBox="0 0 40 41" fill="none" xmlns="http://www.w3.org/2000/svg">
<g filter="url(#filter0_d_4669_1498)">
<rect x="2" y="2.5" width="36" height="36" rx="18" fill="#E5E5E5" shape-rendering="crispEdges"/>
<path d="M27.9815 19.5185L27.9815 19.5185C27.8096 19.3466 27.5764 19.25 27.3333 19.25H12.6667C12.4236 19.25 12.1904 19.3466 12.0185 19.5185C11.8466 19.6904 11.75 19.9236 11.75 20.1667C11.75 20.4098 11.8466 20.6429 12.0185 20.8148C12.1904 20.9868 12.4236 21.0833 12.6667 21.0833H27.3333C27.5764 21.0833 27.8096 20.9868 27.9815 20.8148L27.8078 20.6412L27.9815 20.8148C28.1534 20.6429 28.25 20.4098 28.25 20.1667C28.25 19.9236 28.1534 19.6904 27.9815 19.5185Z" fill="black" stroke="black" stroke-width="0.5"/>
</g>
<defs>
<filter id="filter0_d_4669_1498" x="0" y="0.5" width="40" height="40" filterUnits="userSpaceOnUse" color-interpolation-filters="sRGB">
<feFlood flood-opacity="0" result="BackgroundImageFix"/>
<feColorMatrix in="SourceAlpha" type="matrix" values="0 0 0 0 0 0 0 0 0 0 0 0 0 0 0 0 0 0 127 0" result="hardAlpha"/>
<feOffset/>
<feGaussianBlur stdDeviation="1"/>
<feComposite in2="hardAlpha" operator="out"/>
<feColorMatrix type="matrix" values="0 0 0 0 0 0 0 0 0 0 0 0 0 0 0 0 0 0 0.1 0"/>
<feBlend mode="normal" in2="BackgroundImageFix" result="effect1_dropShadow_4669_1498"/>
<feBlend mode="normal" in="SourceGraphic" in2="effect1_dropShadow_4669_1498" result="shape"/>
</filter>
</defs>
</svg>
