<svg width="49" height="48" viewBox="0 0 49 48" fill="none" xmlns="http://www.w3.org/2000/svg">
<path d="M24.5 26.4C25.18 26.4 25.7504 26.1696 26.2112 25.7088C26.6704 25.2496 26.9 24.68 26.9 24V14.34C26.9 13.66 26.6704 13.1 26.2112 12.66C25.7504 12.22 25.18 12 24.5 12C23.82 12 23.2504 12.2296 22.7912 12.6888C22.3304 13.1496 22.1 13.72 22.1 14.4V24.06C22.1 24.74 22.3304 25.3 22.7912 25.74C23.2504 26.18 23.82 26.4 24.5 26.4ZM24.5 36C25.18 36 25.7504 35.7696 26.2112 35.3088C26.6704 34.8496 26.9 34.28 26.9 33.6C26.9 32.92 26.6704 32.3496 26.2112 31.8888C25.7504 31.4296 25.18 31.2 24.5 31.2C23.82 31.2 23.2504 31.4296 22.7912 31.8888C22.3304 32.3496 22.1 32.92 22.1 33.6C22.1 34.28 22.3304 34.8496 22.7912 35.3088C23.2504 35.7696 23.82 36 24.5 36ZM24.5 48C21.18 48 18.06 47.3696 15.14 46.1088C12.22 44.8496 9.68 43.14 7.52 40.98C5.36 38.82 3.6504 36.28 2.3912 33.36C1.1304 30.44 0.5 27.32 0.5 24C0.5 20.68 1.1304 17.56 2.3912 14.64C3.6504 11.72 5.36 9.18 7.52 7.02C9.68 4.86 12.22 3.1496 15.14 1.8888C18.06 0.6296 21.18 0 24.5 0C27.82 0 30.94 0.6296 33.86 1.8888C36.78 3.1496 39.32 4.86 41.48 7.02C43.64 9.18 45.3496 11.72 46.6088 14.64C47.8696 17.56 48.5 20.68 48.5 24C48.5 27.32 47.8696 30.44 46.6088 33.36C45.3496 36.28 43.64 38.82 41.48 40.98C39.32 43.14 36.78 44.8496 33.86 46.1088C30.94 47.3696 27.82 48 24.5 48Z" fill="#666666"/>
</svg>
