<svg width="50" height="50" viewBox="0 0 50 50" fill="none" xmlns="http://www.w3.org/2000/svg">
<path d="M46.875 10.9375V20.3125C46.875 20.7269 46.7104 21.1243 46.4174 21.4174C46.1243 21.7104 45.7269 21.875 45.3125 21.875H35.9375C35.5231 21.875 35.1257 21.7104 34.8326 21.4174C34.5396 21.1243 34.375 20.7269 34.375 20.3125C34.375 19.8981 34.5396 19.5007 34.8326 19.2077C35.1257 18.9146 35.5231 18.75 35.9375 18.75H41.2891L36.0957 13.9922L36.0469 13.9453C33.8751 11.7744 31.1119 10.2915 28.1022 9.68194C25.0926 9.07235 21.9701 9.36307 19.1248 10.5178C16.2794 11.6725 13.8374 13.64 12.1038 16.1745C10.3701 18.7091 9.42175 21.6982 9.37707 24.7686C9.3324 27.839 10.1934 30.8545 11.8526 33.4384C13.5118 36.0223 15.8955 38.0601 18.7061 39.2971C21.5166 40.5341 24.6293 40.9155 27.6554 40.3937C30.6815 39.872 33.4867 38.4701 35.7207 36.3633C36.0219 36.0784 36.424 35.9248 36.8384 35.9364C37.2529 35.9479 37.6458 36.1236 37.9307 36.4248C38.2156 36.726 38.3691 37.1281 38.3576 37.5425C38.3461 37.957 38.1704 38.3499 37.8691 38.6348C34.3955 41.9292 29.7874 43.7608 25 43.75H24.7422C21.6714 43.7079 18.6579 42.9122 15.9666 41.4328C13.2753 39.9534 10.9886 37.8355 9.30753 35.2654C7.62643 32.6952 6.60238 29.7515 6.32539 26.6929C6.04839 23.6343 6.52694 20.5545 7.71896 17.7241C8.91098 14.8938 10.78 12.3996 13.1617 10.4607C15.5434 8.52189 18.3649 7.19774 21.3782 6.60469C24.3915 6.01164 27.5044 6.16784 30.4432 7.05956C33.382 7.95128 36.0568 9.55122 38.2324 11.7188L43.75 16.7578V10.9375C43.75 10.5231 43.9146 10.1257 44.2076 9.83266C44.5007 9.53963 44.8981 9.37501 45.3125 9.37501C45.7269 9.37501 46.1243 9.53963 46.4174 9.83266C46.7104 10.1257 46.875 10.5231 46.875 10.9375Z" fill="#343330"/>
</svg>
