<svg width="35" height="36" viewBox="0 0 35 36" fill="none" xmlns="http://www.w3.org/2000/svg">
<path d="M25 22.51H23.42L22.86 21.97C24.82 19.69 26 16.73 26 13.51C26 6.33001 20.18 0.51001 13 0.51001C5.82 0.51001 0 6.33001 0 13.51C0 20.69 5.82 26.51 13 26.51C16.22 26.51 19.18 25.33 21.46 23.37L22 23.93V25.51L32 35.49L34.98 32.51L25 22.51ZM13 22.51C8.02 22.51 4 18.49 4 13.51C4 8.53001 8.02 4.51001 13 4.51001C17.98 4.51001 22 8.53001 22 13.51C22 18.49 17.98 22.51 13 22.51Z" fill="#999999"/>
</svg>
