<svg width="17" height="20" viewBox="0 0 17 20" fill="none" xmlns="http://www.w3.org/2000/svg">
<path d="M15.9909 6.87273C15.8769 6.96119 13.8641 8.09534 13.8641 10.6172C13.8641 13.5342 16.4253 14.5661 16.502 14.5917C16.4902 14.6546 16.0951 16.0049 15.1516 17.3808C14.3103 18.5917 13.4317 19.8005 12.0951 19.8005C10.7585 19.8005 10.4145 19.0241 8.8715 19.0241C7.36781 19.0241 6.83317 19.826 5.61057 19.826C4.38796 19.826 3.53489 18.7057 2.55405 17.3297C1.41794 15.714 0.5 13.2039 0.5 10.8216C0.5 7.0005 2.98452 4.97396 5.42973 4.97396C6.72899 4.97396 7.81204 5.82703 8.62777 5.82703C9.40418 5.82703 10.615 4.92286 12.0931 4.92286C12.6533 4.92286 14.6661 4.97396 15.9909 6.87273ZM11.3914 3.30517C12.0027 2.57986 12.4351 1.57347 12.4351 0.567083C12.4351 0.427525 12.4233 0.286002 12.3978 0.171997C11.4032 0.209344 10.2199 0.834405 9.50639 1.66192C8.94619 2.29878 8.42334 3.30517 8.42334 4.32531C8.42334 4.47863 8.4489 4.63195 8.46069 4.68109C8.52359 4.69288 8.6258 4.70664 8.72801 4.70664C9.62039 4.70664 10.7428 4.1091 11.3914 3.30517Z" fill="white"/>
</svg>
