<svg width="23" height="22" viewBox="0 0 23 22" fill="none" xmlns="http://www.w3.org/2000/svg">
<path d="M11.3799 0.837158C13.4351 0.837158 15.336 1.23715 17.0825 2.03714C18.829 2.83713 20.2098 3.92496 21.2247 5.3006C22.2396 6.67619 22.7471 8.1767 22.7471 9.8021C22.7471 11.4274 22.2396 12.9301 21.2247 14.31C20.2098 15.6898 18.8311 16.7798 17.0888 17.5797C15.3465 18.3797 13.4436 18.7797 11.3799 18.7797C10.7286 18.7797 10.0562 18.7331 9.36271 18.64C6.35174 20.731 4.74904 21.7892 4.55451 21.8146C4.46146 21.8485 4.37263 21.8442 4.28807 21.8019C4.25423 21.7765 4.22887 21.7426 4.21195 21.7003C4.19502 21.658 4.18659 21.6199 4.18659 21.586V21.5352C4.23735 21.205 4.62215 19.8295 5.34107 17.4083C3.70872 16.5956 2.41257 15.5184 1.45262 14.1766C0.492672 12.8349 0.0126953 11.3767 0.0126953 9.8021C0.0126953 8.1767 0.520159 6.67619 1.53509 5.3006C2.55002 3.92496 3.93074 2.83713 5.67726 2.03714C7.42377 1.23715 9.32465 0.837158 11.3799 0.837158Z" fill="black"/>
</svg>
