<svg width="14" height="14" viewBox="0 0 14 14" fill="none" xmlns="http://www.w3.org/2000/svg">
<path d="M13.2882 11.5489C13.4644 11.725 13.5633 11.9639 13.5633 12.213C13.5633 12.462 13.4644 12.7009 13.2882 12.877C13.1121 13.0531 12.8733 13.1521 12.6242 13.1521C12.3751 13.1521 12.1362 13.0531 11.9601 12.877L6.99997 7.9153L2.03825 12.8755C1.86213 13.0516 1.62326 13.1505 1.37419 13.1505C1.12511 13.1505 0.886243 13.0516 0.710122 12.8755C0.534002 12.6993 0.435059 12.4605 0.435059 12.2114C0.435059 11.9623 0.534002 11.7235 0.710122 11.5473L5.67184 6.58717L0.711685 1.62545C0.535564 1.44933 0.436621 1.21046 0.436621 0.961392C0.436621 0.71232 0.535564 0.47345 0.711685 0.297329C0.887805 0.121209 1.12668 0.0222655 1.37575 0.0222655C1.62482 0.0222655 1.86369 0.121209 2.03981 0.297329L6.99997 5.25905L11.9617 0.296548C12.1378 0.120428 12.3767 0.0214844 12.6257 0.0214844C12.8748 0.0214844 13.1137 0.120428 13.2898 0.296548C13.4659 0.472668 13.5649 0.711539 13.5649 0.960611C13.5649 1.20968 13.4659 1.44855 13.2898 1.62467L8.32809 6.58717L13.2882 11.5489Z" fill="#999999"/>
</svg>
